<svg width="150" height="41" viewBox="0 0 150 41" fill="none" xmlns="http://www.w3.org/2000/svg">
<g clipPath="url(#clip0_10422_337)">
<path d="M40.6698 24.1407V16.6933H37.1262C36.7058 14.7713 35.925 13.0296 34.9641 11.468L37.4866 8.94552L32.2013 3.66024L29.6788 6.18276C28.1172 5.16174 26.3154 4.44102 24.4536 4.0206V0.416992H21.4506H20.7298H15.2043C14.4836 0.416992 13.883 1.01759 13.883 1.73831C13.883 2.45903 14.4836 3.05964 15.2043 3.05964H20.7298H20.7899C21.5106 3.05964 22.1112 3.66024 22.1112 4.38096C22.1112 5.10168 21.5106 5.70228 20.7899 5.70228H20.7298H14.4836H7.51663C6.79591 5.70228 6.19531 6.30288 6.19531 7.0236C6.19531 7.74432 6.79591 8.34492 7.51663 8.34492H14.4836H20.6698H20.7298C20.7298 8.34492 20.7298 8.34492 20.7899 8.34492C27.3965 8.40498 32.6818 13.7503 32.6818 20.3569C32.6818 26.9635 27.3365 32.3689 20.6698 32.3689H7.51663C6.79591 32.3689 6.19531 32.9695 6.19531 33.6903C6.19531 34.411 6.79591 35.0116 7.51663 35.0116H20.6698V37.6542H15.1443C14.4235 37.6542 13.8229 38.2548 13.8229 38.9756C13.8229 39.6963 14.4235 40.2969 15.1443 40.2969H20.6698H21.3905H24.3935V36.7533C26.3154 36.3329 28.0572 35.5521 29.6187 34.5912L32.1413 37.1137L37.4265 31.8284L34.904 29.3659C35.925 27.8044 36.6458 26.0026 37.0662 24.1407H40.6698Z" fill="#4F70E6"/>
<path d="M20.6699 29.7265C25.8351 29.7265 29.9792 25.5223 29.9792 20.4172C29.9792 15.2521 25.775 11.1079 20.6699 11.1079H14.4837H13.1624H4.33359C3.61286 11.1079 3.01226 11.7085 3.01226 12.4292C3.01226 13.15 3.61286 13.7506 4.33359 13.7506H10.7H14.1234H14.4837H20.6699H20.73C21.4507 13.7506 22.0513 14.3512 22.0513 15.0719C22.0513 15.7926 21.4507 16.3932 20.73 16.3932H20.6699H14.4837H12.2615H9.37863H1.99124C1.27052 16.3932 0.669922 16.9938 0.669922 17.7145C0.669922 18.4352 1.27052 19.0358 1.99124 19.0358H8.71797H11.4207H14.4237H20.6099H20.6699C21.3906 19.0358 21.9912 19.6364 21.9912 20.3572C21.9912 21.0779 21.3906 21.6785 20.6699 21.6785H20.6099H14.4837H11.4807H8.77803H1.99124C1.27052 21.6785 0.669922 22.2791 0.669922 22.9998C0.669922 23.7205 1.27052 24.4412 1.99124 24.4412H9.37863H12.2615H20.6699H20.73C21.4507 24.4412 22.0513 25.0418 22.0513 25.7626C22.0513 26.4833 21.4507 27.0839 20.73 27.0839H20.6699H14.4837H14.1834H10.76H4.33359C3.61286 27.0839 3.01226 27.6845 3.01226 28.4052C3.01226 29.1259 3.61286 29.7265 4.33359 29.7265H13.1624H20.6699Z" fill="#4F70E6"/>
</g>
<path d="M50.8599 30.417V9.41699H59.1999C60.4799 9.41699 61.6199 9.67699 62.6199 10.197C63.6399 10.697 64.4299 11.417 64.9899 12.357C65.5699 13.277 65.8599 14.387 65.8599 15.687V16.077C65.8599 17.377 65.5599 18.497 64.9599 19.437C64.3799 20.377 63.5899 21.097 62.5899 21.597C61.5899 22.097 60.4599 22.347 59.1999 22.347H54.0999V30.417H50.8599ZM54.0999 19.407H58.8699C60.0099 19.407 60.9199 19.107 61.5999 18.507C62.2799 17.907 62.6199 17.087 62.6199 16.047V15.747C62.6199 14.687 62.2799 13.857 61.5999 13.257C60.9199 12.657 60.0099 12.357 58.8699 12.357H54.0999V19.407ZM74.0561 30.687C72.9361 30.687 71.9361 30.437 71.0561 29.937C70.1761 29.437 69.4861 28.727 68.9861 27.807C68.4861 26.887 68.2361 25.787 68.2361 24.507V15.627H71.3261V24.297C71.3261 25.577 71.6461 26.527 72.2861 27.147C72.9261 27.747 73.8161 28.047 74.9561 28.047C76.2161 28.047 77.2261 27.627 77.9861 26.787C78.7661 25.927 79.1561 24.697 79.1561 23.097V15.627H82.2461V30.417H79.2161V28.197H78.7361C78.4561 28.797 77.9561 29.367 77.2361 29.907C76.5161 30.427 75.4561 30.687 74.0561 30.687ZM91.7238 30.417C90.8238 30.417 90.1038 30.147 89.5638 29.607C89.0438 29.067 88.7838 28.347 88.7838 27.447V18.237H84.7038V15.627H88.7838V10.737H91.8738V15.627H96.2838V18.237H91.8738V26.907C91.8738 27.507 92.1538 27.807 92.7138 27.807H95.8038V30.417H91.7238ZM105.527 30.837C104.027 30.837 102.717 30.527 101.597 29.907C100.477 29.267 99.5967 28.377 98.9567 27.237C98.3367 26.077 98.0267 24.737 98.0267 23.217V22.857C98.0267 21.317 98.3367 19.977 98.9567 18.837C99.5767 17.677 100.437 16.787 101.537 16.167C102.657 15.527 103.947 15.207 105.407 15.207C106.827 15.207 108.067 15.527 109.127 16.167C110.207 16.787 111.047 17.657 111.647 18.777C112.247 19.897 112.547 21.207 112.547 22.707V23.877H101.177C101.217 25.177 101.647 26.217 102.467 26.997C103.307 27.757 104.347 28.137 105.587 28.137C106.747 28.137 107.617 27.877 108.197 27.357C108.797 26.837 109.257 26.237 109.577 25.557L112.127 26.877C111.847 27.437 111.437 28.027 110.897 28.647C110.377 29.267 109.687 29.787 108.827 30.207C107.967 30.627 106.867 30.837 105.527 30.837ZM101.207 21.507H109.397C109.317 20.387 108.917 19.517 108.197 18.897C107.477 18.257 106.537 17.937 105.377 17.937C104.217 17.937 103.267 18.257 102.527 18.897C101.807 19.517 101.367 20.387 101.207 21.507ZM122.496 30.837C121.076 30.837 119.786 30.537 118.626 29.937C117.486 29.337 116.576 28.467 115.896 27.327C115.236 26.187 114.906 24.817 114.906 23.217V22.827C114.906 21.227 115.236 19.867 115.896 18.747C116.576 17.607 117.486 16.737 118.626 16.137C119.786 15.517 121.076 15.207 122.496 15.207C123.916 15.207 125.126 15.467 126.126 15.987C127.126 16.507 127.926 17.197 128.526 18.057C129.146 18.917 129.546 19.867 129.726 20.907L126.726 21.537C126.626 20.877 126.416 20.277 126.096 19.737C125.776 19.197 125.326 18.767 124.746 18.447C124.166 18.127 123.436 17.967 122.556 17.967C121.696 17.967 120.916 18.167 120.216 18.567C119.536 18.947 118.996 19.507 118.596 20.247C118.196 20.967 117.996 21.847 117.996 22.887V23.157C117.996 24.197 118.196 25.087 118.596 25.827C118.996 26.567 119.536 27.127 120.216 27.507C120.916 27.887 121.696 28.077 122.556 28.077C123.856 28.077 124.846 27.747 125.526 27.087C126.206 26.407 126.636 25.547 126.816 24.507L129.816 25.197C129.576 26.217 129.146 27.157 128.526 28.017C127.926 28.877 127.126 29.567 126.126 30.087C125.126 30.587 123.916 30.837 122.496 30.837ZM132.74 30.417V9.41699H135.83V17.727H136.31C136.51 17.347 136.79 16.977 137.15 16.617C137.53 16.257 138.02 15.967 138.62 15.747C139.24 15.507 140.02 15.387 140.96 15.387C142.08 15.387 143.07 15.637 143.93 16.137C144.81 16.637 145.5 17.347 146 18.267C146.5 19.167 146.75 20.257 146.75 21.537V30.417H143.66V21.777C143.66 20.497 143.34 19.557 142.7 18.957C142.06 18.337 141.18 18.027 140.06 18.027C138.78 18.027 137.75 18.447 136.97 19.287C136.21 20.127 135.83 21.347 135.83 22.947V30.417H132.74Z" fill="white"/>
<defs>
<clipPath id="clip0_10422_337">
<rect width="40" height="40" fill="white" transform="translate(0.669922 0.416992)"/>
</clipPath>
</defs>
</svg>
