<svg width="149" height="40" viewBox="0 0 149 40" fill="none" xmlns="http://www.w3.org/2000/svg">
<g clipPath="url(#clip0_8609_129)">
<path d="M40 23.7237V16.2763H36.4564C36.036 14.3544 35.2552 12.6126 34.2943 11.0511L36.8168 8.52853L31.5315 3.24324L29.009 5.76577C27.4474 4.74475 25.6456 4.02402 23.7838 3.6036V0H20.7808H20.06H14.5345C13.8138 0 13.2132 0.600601 13.2132 1.32132C13.2132 2.04204 13.8138 2.64264 14.5345 2.64264H20.06H20.1201C20.8408 2.64264 21.4414 3.24324 21.4414 3.96396C21.4414 4.68469 20.8408 5.28529 20.1201 5.28529H20.06H13.8138H6.84683C6.12611 5.28529 5.52551 5.88589 5.52551 6.60661C5.52551 7.32733 6.12611 7.92793 6.84683 7.92793H13.8138H20H20.06C20.06 7.92793 20.06 7.92793 20.1201 7.92793C26.7267 7.98799 32.012 13.3333 32.012 19.9399C32.012 26.5465 26.6667 31.952 20 31.952H6.84683C6.12611 31.952 5.52551 32.5526 5.52551 33.2733C5.52551 33.994 6.12611 34.5946 6.84683 34.5946H20V37.2372H14.4745C13.7537 37.2372 13.1531 37.8378 13.1531 38.5586C13.1531 39.2793 13.7537 39.8799 14.4745 39.8799H20H20.7207H23.7237V36.3363C25.6456 35.9159 27.3874 35.1351 28.9489 34.1742L31.4715 36.6967L36.7567 31.4114L34.2342 28.949C35.2552 27.3874 35.976 25.5856 36.3964 23.7237H40Z" fill="#4F70E6"/>
<path d="M20 29.3095C25.1652 29.3095 29.3093 25.1053 29.3093 20.0002C29.3093 14.8351 25.1051 10.6909 20 10.6909H13.8138H12.4925H3.66366C2.94294 10.6909 2.34234 11.2915 2.34234 12.0122C2.34234 12.733 2.94294 13.3336 3.66366 13.3336H10.03H13.4535H13.8138H20H20.0601C20.7808 13.3336 21.3814 13.9342 21.3814 14.6549C21.3814 15.3756 20.7808 15.9762 20.0601 15.9762H20H13.8138H11.5916H8.70871H1.32132C0.600601 15.9762 0 16.5768 0 17.2975C0 18.0182 0.600601 18.6188 1.32132 18.6188H8.04805H10.7508H13.7538H19.9399H20C20.7207 18.6188 21.3213 19.2194 21.3213 19.9402C21.3213 20.6609 20.7207 21.2615 20 21.2615H19.9399H13.8138H10.8108H8.10811H1.32132C0.600601 21.2615 0 21.8621 0 22.5828C0 23.3035 0.600601 24.0243 1.32132 24.0243H8.70871H11.5916H20H20.0601C20.7808 24.0243 21.3814 24.6249 21.3814 25.3456C21.3814 26.0663 20.7808 26.6669 20.0601 26.6669H20H13.8138H13.5135H10.0901H3.66366C2.94294 26.6669 2.34234 27.2675 2.34234 27.9882C2.34234 28.7089 2.94294 29.3095 3.66366 29.3095H12.4925H20Z" fill="#4F70E6"/>
</g>
<path d="M50.19 30V9H58.53C59.81 9 60.95 9.26 61.95 9.78C62.97 10.28 63.76 11 64.32 11.94C64.9 12.86 65.19 13.97 65.19 15.27V15.66C65.19 16.96 64.89 18.08 64.29 19.02C63.71 19.96 62.92 20.68 61.92 21.18C60.92 21.68 59.79 21.93 58.53 21.93H53.43V30H50.19ZM53.43 18.99H58.2C59.34 18.99 60.25 18.69 60.93 18.09C61.61 17.49 61.95 16.67 61.95 15.63V15.33C61.95 14.27 61.61 13.44 60.93 12.84C60.25 12.24 59.34 11.94 58.2 11.94H53.43V18.99ZM73.3862 30.27C72.2662 30.27 71.2662 30.02 70.3862 29.52C69.5062 29.02 68.8162 28.31 68.3162 27.39C67.8162 26.47 67.5662 25.37 67.5662 24.09V15.21H70.6562V23.88C70.6562 25.16 70.9762 26.11 71.6162 26.73C72.2562 27.33 73.1462 27.63 74.2862 27.63C75.5462 27.63 76.5562 27.21 77.3162 26.37C78.0962 25.51 78.4862 24.28 78.4862 22.68V15.21H81.5762V30H78.5462V27.78H78.0662C77.7862 28.38 77.2862 28.95 76.5662 29.49C75.8462 30.01 74.7862 30.27 73.3862 30.27ZM91.0539 30C90.1539 30 89.4339 29.73 88.8939 29.19C88.3739 28.65 88.1139 27.93 88.1139 27.03V17.82H84.0339V15.21H88.1139V10.32H91.2039V15.21H95.6139V17.82H91.2039V26.49C91.2039 27.09 91.4839 27.39 92.0439 27.39H95.1339V30H91.0539ZM104.857 30.42C103.357 30.42 102.047 30.11 100.927 29.49C99.8068 28.85 98.9268 27.96 98.2868 26.82C97.6668 25.66 97.3568 24.32 97.3568 22.8V22.44C97.3568 20.9 97.6668 19.56 98.2868 18.42C98.9068 17.26 99.7668 16.37 100.867 15.75C101.987 15.11 103.277 14.79 104.737 14.79C106.157 14.79 107.397 15.11 108.457 15.75C109.537 16.37 110.377 17.24 110.977 18.36C111.577 19.48 111.877 20.79 111.877 22.29V23.46H100.507C100.547 24.76 100.977 25.8 101.797 26.58C102.637 27.34 103.677 27.72 104.917 27.72C106.077 27.72 106.947 27.46 107.527 26.94C108.127 26.42 108.587 25.82 108.907 25.14L111.457 26.46C111.177 27.02 110.767 27.61 110.227 28.23C109.707 28.85 109.017 29.37 108.157 29.79C107.297 30.21 106.197 30.42 104.857 30.42ZM100.537 21.09H108.727C108.647 19.97 108.247 19.1 107.527 18.48C106.807 17.84 105.867 17.52 104.707 17.52C103.547 17.52 102.597 17.84 101.857 18.48C101.137 19.1 100.697 19.97 100.537 21.09ZM121.826 30.42C120.406 30.42 119.116 30.12 117.956 29.52C116.816 28.92 115.906 28.05 115.226 26.91C114.566 25.77 114.236 24.4 114.236 22.8V22.41C114.236 20.81 114.566 19.45 115.226 18.33C115.906 17.19 116.816 16.32 117.956 15.72C119.116 15.1 120.406 14.79 121.826 14.79C123.246 14.79 124.456 15.05 125.456 15.57C126.456 16.09 127.256 16.78 127.856 17.64C128.476 18.5 128.876 19.45 129.056 20.49L126.056 21.12C125.956 20.46 125.746 19.86 125.426 19.32C125.106 18.78 124.656 18.35 124.076 18.03C123.496 17.71 122.766 17.55 121.886 17.55C121.026 17.55 120.246 17.75 119.546 18.15C118.866 18.53 118.326 19.09 117.926 19.83C117.526 20.55 117.326 21.43 117.326 22.47V22.74C117.326 23.78 117.526 24.67 117.926 25.41C118.326 26.15 118.866 26.71 119.546 27.09C120.246 27.47 121.026 27.66 121.886 27.66C123.186 27.66 124.176 27.33 124.856 26.67C125.536 25.99 125.966 25.13 126.146 24.09L129.146 24.78C128.906 25.8 128.476 26.74 127.856 27.6C127.256 28.46 126.456 29.15 125.456 29.67C124.456 30.17 123.246 30.42 121.826 30.42ZM132.07 30V9H135.16V17.31H135.64C135.84 16.93 136.12 16.56 136.48 16.2C136.86 15.84 137.35 15.55 137.95 15.33C138.57 15.09 139.35 14.97 140.29 14.97C141.41 14.97 142.4 15.22 143.26 15.72C144.14 16.22 144.83 16.93 145.33 17.85C145.83 18.75 146.08 19.84 146.08 21.12V30H142.99V21.36C142.99 20.08 142.67 19.14 142.03 18.54C141.39 17.92 140.51 17.61 139.39 17.61C138.11 17.61 137.08 18.03 136.3 18.87C135.54 19.71 135.16 20.93 135.16 22.53V30H132.07Z" fill="#100701"/>
<defs>
<clipPath id="clip0_8609_129">
<rect width="40" height="40" fill="white"/>
</clipPath>
</defs>
</svg>
